<svg width="28" height="4" viewBox="0 0 28 4" fill="none" xmlns="http://www.w3.org/2000/svg">
<path d="M1.87517 3.00027H1.04568V0.789777H0V0.0441216H2.91644V0.789777H1.87517V3.00027Z" fill="black"/>
<path d="M3.94627 3.00027H3.11678V0.0441216H3.94627V1.14275H5.32286V0.0441216H6.15235V3.00027H5.32286V1.88841H3.94627V3.00027Z" fill="black"/>
<path d="M7.24677 3.00027H6.41729V0.0441216H8.14244C8.92339 0.0441216 9.33373 0.370622 9.33373 0.948615C9.33373 1.4163 9.09988 1.69427 8.53512 1.76487V1.80899C8.83956 1.88841 8.93663 2.03401 9.04694 2.25903L9.41314 3.00027H8.45571L8.10273 2.27668C7.99684 2.05607 7.9086 1.9943 7.58651 1.9943H7.24677V3.00027ZM7.24677 0.789777V1.37659H8.13362C8.37629 1.37659 8.46453 1.33247 8.46453 1.08098C8.46453 0.847135 8.37629 0.789777 8.13362 0.789777H7.24677Z" fill="black"/>
<path d="M12.1707 3.00027H9.54544V0.0441216H12.1707V0.789777H10.3749V1.14275H12.1045V1.88399H10.3749V2.25462H12.1707V3.00027Z" fill="black"/>
<path d="M16.7014 3.04439C15.7969 3.04439 15.2454 2.72231 15.2454 1.97224V1.94576H16.0749V2.03842C16.0749 2.23697 16.1455 2.28991 16.7014 2.28991C17.2044 2.28991 17.2574 2.2502 17.2574 2.11784C17.2574 2.01195 17.2 1.96783 16.9573 1.93694L16.0308 1.8134C15.4792 1.73839 15.2013 1.44278 15.2013 0.966264C15.2013 0.494162 15.5675 0 16.6352 0C17.575 0 18.0251 0.410331 18.0251 1.07216V1.09863H17.1956V1.03245C17.1956 0.820662 17.1029 0.750068 16.547 0.750068C16.1234 0.750068 16.0308 0.807426 16.0308 0.935379C16.0308 1.02803 16.0837 1.07216 16.2426 1.09422L17.1691 1.23099C17.8927 1.33689 18.0868 1.70751 18.0868 2.08695C18.0868 2.59435 17.6986 3.04439 16.7014 3.04439Z" fill="black"/>
<path d="M19.8764 3.04439C18.8484 3.04439 18.2395 2.44434 18.2395 1.5222C18.2395 0.600054 18.8484 0 19.8764 0C20.9309 0 21.5309 0.600054 21.5309 1.5222C21.5309 2.44434 20.9309 3.04439 19.8764 3.04439ZM19.8764 2.2502C20.4764 2.2502 20.6485 2.10901 20.6485 1.5222C20.6485 0.935379 20.4764 0.79419 19.8764 0.79419C19.2763 0.79419 19.1219 0.935379 19.1219 1.5222C19.1219 2.10901 19.2763 2.2502 19.8764 2.2502Z" fill="black"/>
<path d="M22.5816 3.00027H21.7521V0.0441216H22.6346L23.4552 1.15157L23.8876 1.83105H23.945L23.9053 1.18687V0.0441216H24.7348V3.00027H23.8523L22.9787 1.86193L22.6037 1.27953H22.5463L22.5816 1.84428V3.00027Z" fill="black"/>
<path d="M26.4349 3.04439C25.5304 3.04439 24.9789 2.72231 24.9789 1.97224V1.94576H25.8084V2.03842C25.8084 2.23697 25.879 2.28991 26.4349 2.28991C26.9379 2.28991 26.9908 2.2502 26.9908 2.11784C26.9908 2.01195 26.9335 1.96783 26.6908 1.93694L25.7642 1.8134C25.2127 1.73839 24.9348 1.44278 24.9348 0.966264C24.9348 0.494162 25.301 0 26.3687 0C27.3085 0 27.7585 0.410331 27.7585 1.07216V1.09863H26.9291V1.03245C26.9291 0.820662 26.8364 0.750068 26.2805 0.750068C25.8569 0.750068 25.7642 0.807426 25.7642 0.935379C25.7642 1.02803 25.8172 1.07216 25.976 1.09422L26.9026 1.23099C27.6262 1.33689 27.8203 1.70751 27.8203 2.08695C27.8203 2.59435 27.432 3.04439 26.4349 3.04439Z" fill="black"/>
<path d="M12.4355 0.426518C12.4355 0.223454 12.6002 0.0588379 12.8032 0.0588379H15.0093V0.426518C15.0093 0.629583 14.8447 0.794199 14.6416 0.794199H12.4355V0.426518Z" fill="#E15E17"/>
<path d="M12.4355 1.52955C12.4355 1.32648 12.6002 1.16187 12.8032 1.16187H15.0093V1.52955C15.0093 1.73261 14.8447 1.89723 14.6416 1.89723H12.4355V1.52955Z" fill="black"/>
<path d="M12.4355 2.63257C12.4355 2.42951 12.6002 2.26489 12.8032 2.26489H15.0093V2.63257C15.0093 2.83564 14.8447 3.00025 14.6416 3.00025H12.4355V2.63257Z" fill="#1BA121"/>
</svg>
